General
Complete name : Toy Story 3.2010.CAM.XviD.AC3.RUS-ELEKTRI4KA.avi
Format : AVI
Format/Info : Audio Video Interleave
File size : 1.36 GiB
Duration : 1h 34mn
Overall bit rate : 2 076 Kbps
Writing application : VirtualDubMod 1.5.10.2 (build 2540/release)
Writing library : VirtualDubMod build 2540/release

Video
ID : 0
Format : MPEG-4 Visual
Format profile : Advanced Simple@L5
Format settings, BVOP : Yes
Format settings, QPel : Yes
Format settings, GMC : No warppoints
Format settings, Matrix : Default (H.263)
Codec ID : XVID
Codec ID/Hint : XviD
Duration : 1h 34mn
Bit rate : 1 875 Kbps
Width : 656 pixels
Height : 368 pixels
Display aspect ratio : 16:9
Frame rate : 25.000 fps
Resolution : 8 bits
Colorimetry : 4:2:0
Scan type : Progressive
Bits/(Pixel*Frame) : 0.311
Stream size : 1.23 GiB (90%)
Writing library : XviD 1.2.1 (UTC 2008-12-04)

Audio Rusă
ID : 1
Format : AC-3
Format/Info : Audio Coding 3
Format_Settings_ModeExtension : CM (complete main)
Codec ID : 2000
Duration : 1h 34mn
Bit rate mode : Constant
Bit rate : 192 Kbps
Channel(s) : 2 channels
Channel positions : Front: L R
Sampling rate : 48.0 KHz
Stream size : 129 MiB (9%)
Alignment : Aligned on interleaves
Interleave, duration : 40 ms (1.00 video frame)
Interleave, preload duration : 512 ms


Screens
 
http://postimg.com/image/17000/16561.jpg